<svg xmlns="http://www.w3.org/2000/svg" viewBox="0 0 400 150">
  <!-- Sun rays -->
  <g fill="#E6C200">
    <path d="M200 30 L200 10 M185 32 L175 15 M170 40 L155 25 M160 55 L140 45 M155 70 L135 70 M160 85 L140 95 M170 100 L155 115 M185 108 L175 125 M200 110 L200 130 M215 108 L225 125 M230 100 L245 115 M240 85 L260 95 M245 70 L265 70 M240 55 L260 45 M230 40 L245 25 M215 32 L225 15" stroke="#E6C200" stroke-width="2"/>
    <!-- Small dots at the end of rays -->
    <circle cx="200" cy="10" r="2"/>
    <circle cx="175" cy="15" r="2"/>
    <circle cx="155" cy="25" r="2"/>
    <circle cx="140" cy="45" r="2"/>
    <circle cx="135" cy="70" r="2"/>
    <circle cx="140" cy="95" r="2"/>
    <circle cx="155" cy="115" r="2"/>
    <circle cx="175" cy="125" r="2"/>
    <circle cx="200" cy="130" r="2"/>
    <circle cx="225" cy="125" r="2"/>
    <circle cx="245" cy="115" r="2"/>
    <circle cx="260" cy="95" r="2"/>
    <circle cx="265" cy="70" r="2"/>
    <circle cx="260" cy="45" r="2"/>
    <circle cx="245" cy="25" r="2"/>
    <circle cx="225" cy="15" r="2"/>
  </g>
  
  <!-- SOLARIS text -->
  <text x="50" y="100" font-family="sans-serif" font-size="48" font-weight="300" letter-spacing="5">SOLARIS</text>
</svg>